<svg width="482" height="512" viewBox="0 0 482 512" fill="none" xmlns="http://www.w3.org/2000/svg">
<path d="M227.7 1.59999C224.8 3.59999 222.5 8.19999 222.5 11.9C222.5 15.4 223.6 15 205.8 17.4C139.7 26.2 78.5 64.6 40.1 121.3C31.1 134.7 29.2 139 30.5 142.6C31.9 146.2 34.3 147.9 38 147.9C42.1 147.9 43.2 146.8 49 137.5C61.3 117.6 82.1 94.2 100 80C135.4 52 180 34.4 223.4 31.4C235.4 30.6 237.5 29.4 238.4 23.2L239 19L252.5 28C259.9 32.9 266.1 37.3 266.2 37.7C266.3 38.2 260.2 42.7 252.5 47.8C240 56 238.5 56.8 238.5 54.8C238.4 46.1 235.2 44.6 220.2 46C147.1 53.1 83.2 97.3 51 163.3C14.9 237 24.9 324.9 76.7 389L85.3 399.8L80.4 404.6L75.6 409.4L71.3 404.5C49.2 379.5 31.4 346.5 23 314.7C18.3 297.2 16.3 282.5 15.8 262.4C15 234.2 18.4 210.4 26.5 185.9C31 172.5 31.4 168.9 28.5 166C25.9 163.4 19.4 163.3 17.3 165.7C13.6 169.8 6.2 195.3 2.3 216.7C0.3 227.8 0 232.9 0 255.5C0 283.4 0.9 292.4 6.2 314C14.4 348.1 32.1 382.9 55.3 410.8C66.7 424.5 71.7 429 75.6 429C78.4 429 80.6 427.2 91.7 416.3C103.6 404.5 104.5 403.3 104.5 399.8C104.5 396.6 103.6 395.1 97.9 388.8C71.8 360.1 55.3 326.9 48.3 289C46.5 279.6 46.2 273.6 46.2 256C46.2 232.7 47.6 221 53 202.5C74.6 127.8 140.3 71.5 216.8 62.5C222.2 61.8 222.5 61.9 222.5 64C222.5 67.9 225.5 72.8 229 74.4C236 77.8 237.8 77.1 260.7 61.9C272.4 54.2 283 46.6 284.2 45.2C287.2 41.7 287.3 34.3 284.6 30.9C283.6 29.5 273.1 22 261.3 14.2C241 0.699994 239.7 -6.3926e-06 234.9 -6.3926e-06C232 -6.3926e-06 229 0.699994 227.7 1.59999Z" fill="url(#paint0_linear_694_360)"/>
<path d="M389.3 95.7C377.4 107.5 376.5 108.7 376.5 112.2C376.5 115.4 377.4 117 383.1 123.2C403.1 145.2 416.6 168.1 425.5 194.8C442.9 247.2 437 305.9 409.4 353C402.5 364.7 401.6 369.1 405.5 372.2C407.7 374 411.9 374.5 414.9 373.4C417.1 372.5 424.4 360.5 430.9 347C458.2 290.1 458.3 222.3 431.1 165.5C423 148.6 415.8 137.1 404.7 123.4L395.7 112.2L400.6 107.4L405.4 102.6L409.7 107.5C439.2 140.5 458 182.6 464.1 229C466.3 246 465.6 276.6 462.6 293.5C454.6 338.8 434.5 378.6 402.6 412.4C394.5 420.9 376.4 436 365 443.5C333 464.8 294.7 478 257 480.6C245.6 481.4 243.5 482.7 242.6 488.8L242 493L228.5 484C221.1 479.1 214.9 474.7 214.8 474.3C214.7 473.8 220.8 469.3 228.5 464.2C241 456 242.5 455.2 242.5 457.2C242.6 465.9 245.8 467.4 260.8 466C309.6 461.2 357.4 438.7 390.3 404.7C398.5 396.2 399.5 392.9 395 388.5C390.4 383.8 387.6 384.9 376.4 395.5C359.1 411.9 343 423.1 323.7 432.2C305.7 440.7 283.1 447.3 264.3 449.5C258.8 450.2 258.5 450.1 258.5 448C258.5 444.1 255.5 439.2 252 437.6C245 434.2 243.2 434.9 220.3 450.1C208.6 457.8 198 465.4 196.8 466.8C193.8 470.3 193.7 477.7 196.4 481.1C197.4 482.5 207.9 490 219.7 497.8C239.7 511.1 241.4 512 245.8 512C253.4 512 258.5 507.2 258.5 500.1C258.5 496.7 258.9 496.5 269.5 495.5C279.2 494.6 299.7 490.3 311 486.9C349.2 475.2 382.3 455.2 411 426.5C447.8 389.8 470.5 345.1 479.2 292.5C481.8 276.8 481.8 235.2 479.2 219.5C471.8 174.7 453.9 135.1 425.7 101.2C414.3 87.5 409.3 83 405.4 83C402.6 83 400.4 84.8 389.3 95.7Z" fill="url(#paint1_linear_694_360)"/>
<path d="M208.3 98.1C206.2 99.3 205.1 103.3 203 118C202.1 124.3 201 130.4 200.5 131.6C200 132.8 198 134.1 195.4 134.9C193 135.6 189 137.3 186.5 138.5L181.9 140.8L169 131.4C158.4 123.7 155.5 122 152.6 122C149.2 122 147.5 123.5 127.7 143.3C108.1 163 106.5 164.8 106.5 168.1C106.5 171 108.2 174 115.9 184.5L125.3 197.4L123 202C121.8 204.5 120.1 208.5 119.4 210.9C118.6 213.5 117.3 215.5 116.1 216C114.9 216.5 108.8 217.6 102.5 218.5C84.9999 221.1 83.5999 221.6 81.8999 225.5C79.8999 230.5 79.8999 281.5 81.8999 286.5C83.5999 290.4 84.9999 290.9 102.5 293.5C108.8 294.4 114.9 295.5 116.1 296C117.3 296.5 118.6 298.5 119.4 301.1C120.1 303.5 121.8 307.5 123 310L125.3 314.6L115.9 327.5C108.2 338.1 106.5 341 106.5 343.9C106.5 347.3 108 349 127.8 368.8C147.5 388.4 149.3 390 152.6 390C155.5 390 158.5 388.3 168.9 380.7L181.7 371.3L189.4 374.6C193.6 376.5 197.6 378 198.3 378C200.2 378 201.2 381.4 203 394C205.1 409 206.2 412.8 208.5 414C211 415.4 270 415.4 272.5 414C274.8 412.8 275.9 409 278 394C278.9 387.7 280 381.6 280.5 380.4C281 379.2 283 377.9 285.6 377.1C288 376.4 292 374.7 294.5 373.5L299.1 371.2L312 380.6C322.6 388.2 325.6 390 328.5 390C331.7 390 333.6 388.4 353.3 368.7C372.9 349 374.5 347.2 374.5 343.9C374.5 341 372.8 338 365.1 327.5L355.7 314.6L358 310C359.2 307.5 360.9 303.5 361.6 301.1C362.4 298.5 363.7 296.5 364.9 296C366.1 295.5 372.2 294.4 378.5 293.5C395.8 291 397.4 290.5 399.1 286.5C401.1 281.5 401.1 230.5 399.1 225.5C397.4 221.5 395.8 221 378.5 218.5C372.2 217.6 366.1 216.5 364.9 216C363.7 215.5 362.4 213.5 361.6 210.9C360.9 208.5 359.2 204.5 358 202L355.7 197.4L365.1 184.5C377 168.1 377.2 166.9 368.6 158.7C362.5 152.9 360.5 152.1 356.1 154.1C352.1 156 351.1 160.5 353.6 165.6L355.6 169.9L347.1 181.6C337.3 194.9 337 196.1 341.4 204.8C343 208 345.8 214.8 347.6 219.9C349.8 226.4 351.4 229.5 352.9 230.1C354.1 230.7 361.5 232.1 369.5 233.3L384 235.5V256V276.5L369 278.8C351.3 281.5 351.1 281.6 347 293.5C345.5 297.9 343 304.1 341.4 307.2C337 315.9 337.3 317.1 347 330.4C351.7 336.7 355.5 342.3 355.5 342.7C355.5 343.8 328.2 371 327.2 371C326.8 371 321.2 367.2 314.9 362.5C301.6 352.8 300.4 352.5 291.7 356.9C288.6 358.5 282.6 360.9 278.5 362.4C268.7 365.9 266.7 366.9 265.9 369.2C265.6 370.2 264.4 377.4 263.1 385.3L260.9 399.5H240.5H220.1L217.8 385C216.6 377 215.1 369.5 214.6 368.4C213.9 366.9 211.5 365.5 206.8 364C203.1 362.7 196.2 360 191.6 357.9C187 355.7 182 354 180.5 354C178.6 354 174 356.7 166.1 362.5C159.8 367.2 154.2 371 153.8 371C152.8 371 125.5 343.7 125.5 342.8C125.5 342.4 129.3 336.8 134 330.4C143.7 317.1 144 315.9 139.6 307.2C138 304.1 135.6 298.1 134.1 294C130.6 284 129.6 282.2 127.1 281.4C126 281 118.7 279.8 111 278.6L96.9999 276.4V256V235.6L111.4 233.4C119.4 232.2 126.8 230.7 128 230.2C129.6 229.5 131.1 226.5 133.4 219.9C135.2 214.8 138 208 139.6 204.8C144 196.1 143.7 194.9 134 181.6C129.3 175.2 125.5 169.6 125.5 169.2C125.5 168.3 152.8 141 153.7 141C154.1 141 159.7 144.8 166.1 149.5C174 155.3 178.6 158 180.5 158C182 158 187 156.3 191.6 154.1C196.2 152 203.1 149.3 206.8 148C211.5 146.5 213.9 145.1 214.6 143.6C215.1 142.5 216.6 135 217.8 127L220.1 112.5H240.5H260.9L263.1 126.7C264.4 134.6 265.6 141.8 265.9 142.8C266.7 145.1 268.7 146.1 278.5 149.6C282.6 151.1 288.6 153.5 291.7 155.1C300.4 159.5 301.6 159.2 315.1 149.4C326.8 140.8 326.9 140.8 329.6 142.4C335.9 146.1 342.9 143.1 342.9 136.6C342.9 133.5 342 132.1 337.5 127.5C329.5 119.4 328.2 119.6 312 131.4L299.1 140.8L294.5 138.5C292 137.3 288 135.6 285.6 134.9C283 134.1 281 132.8 280.5 131.6C280 130.4 278.9 124.3 278 118C275.9 103 274.8 99.2 272.5 98C270 96.7 210.6 96.7 208.3 98.1Z" fill="url(#paint2_linear_694_360)"/>
<path d="M183.7 173.3C179.5 174.6 173.9 180.8 172.6 185.7C171.1 191 171.1 321 172.6 326.3C174 331.5 179.5 337.4 184.3 338.8C189.8 340.5 291.2 340.5 296.7 338.8C301.5 337.4 307 331.5 308.4 326.3C309.9 321 309.9 191 308.4 185.7C307 180.5 301.5 174.6 296.7 173.2C291.5 171.6 188.6 171.7 183.7 173.3ZM292.3 189.2C294 190.9 294 321.1 292.3 322.8C290.6 324.5 190.4 324.5 188.7 322.8C187 321.1 187 190.9 188.7 189.2C190.4 187.5 290.6 187.5 292.3 189.2Z" fill="url(#paint3_linear_694_360)"/>
<path d="M200.5 205C197.9 207.6 197.9 213 200.4 216.1L202.3 218.5L237.2 218.8C256.3 219 273.5 218.8 275.3 218.5C277.1 218.2 279.5 217 280.6 215.9C283.2 213.3 283.1 207.6 280.5 205C278.6 203.1 277.2 203 240.5 203C203.8 203 202.4 203.1 200.5 205Z" fill="url(#paint4_linear_694_360)"/>
<path d="M200.7 235.3C197.5 238.7 197.7 244.2 201.1 246.9C203.7 248.9 204.9 249 240.5 249C276.1 249 277.3 248.9 279.9 246.9C283.4 244.2 283.5 238.3 280.2 235.2C277.9 233 277.5 233 240.4 233H202.8L200.7 235.3Z" fill="url(#paint5_linear_694_360)"/>
<path d="M201.1 265.1C197.6 267.8 197.5 273.7 200.8 276.8C203.1 279 203.5 279 240.6 279H278.2L280.3 276.7C283.5 273.3 283.3 267.8 279.9 265.1C277.3 263.1 276.1 263 240.5 263C204.9 263 203.7 263.1 201.1 265.1Z" fill="url(#paint6_linear_694_360)"/>
<path d="M203.8 293.7C198.7 294.7 196.7 303.2 200.5 307C202.4 308.9 203.8 309 223.4 309H244.4L246.4 306.4C250.1 301.7 248.6 296.1 243.1 294C240.5 293 208.6 292.8 203.8 293.7Z" fill="url(#paint7_linear_694_360)"/>
<defs>
<linearGradient id="paint0_linear_694_360" x1="-32.4567" y1="68.707" x2="220.969" y2="211.185" gradientUnits="userSpaceOnUse">
<stop stop-color="#FFDB70"/>
<stop offset="1" stop-color="#FFBB5C"/>
</linearGradient>
<linearGradient id="paint1_linear_694_360" x1="161.985" y1="151.707" x2="415.48" y2="294.298" gradientUnits="userSpaceOnUse">
<stop stop-color="#FFDB70"/>
<stop offset="1" stop-color="#FFBB5C"/>
</linearGradient>
<linearGradient id="paint2_linear_694_360" x1="44.1307" y1="147.969" x2="261.038" y2="331.8" gradientUnits="userSpaceOnUse">
<stop stop-color="#FFDB70"/>
<stop offset="1" stop-color="#FFBB5C"/>
</linearGradient>
<linearGradient id="paint3_linear_694_360" x1="155.838" y1="198.959" x2="264.539" y2="274.132" gradientUnits="userSpaceOnUse">
<stop stop-color="#FFDB70"/>
<stop offset="1" stop-color="#FFBB5C"/>
</linearGradient>
<linearGradient id="paint4_linear_694_360" x1="189.027" y1="205.543" x2="193.724" y2="226.448" gradientUnits="userSpaceOnUse">
<stop stop-color="#FFDB70"/>
<stop offset="1" stop-color="#FFBB5C"/>
</linearGradient>
<linearGradient id="paint5_linear_694_360" x1="188.885" y1="235.562" x2="193.638" y2="256.615" gradientUnits="userSpaceOnUse">
<stop stop-color="#FFDB70"/>
<stop offset="1" stop-color="#FFBB5C"/>
</linearGradient>
<linearGradient id="paint6_linear_694_360" x1="188.862" y1="265.562" x2="193.616" y2="286.615" gradientUnits="userSpaceOnUse">
<stop stop-color="#FFDB70"/>
<stop offset="1" stop-color="#FFBB5C"/>
</linearGradient>
<linearGradient id="paint7_linear_694_360" x1="192.872" y1="295.668" x2="200.131" y2="314.877" gradientUnits="userSpaceOnUse">
<stop stop-color="#FFDB70"/>
<stop offset="1" stop-color="#FFBB5C"/>
</linearGradient>
</defs>
</svg>
