<svg width="513" height="512" viewBox="0 0 513 512" fill="none" xmlns="http://www.w3.org/2000/svg">
<path d="M290.056 0.871672C255.156 5.67167 223.356 18.6717 195.556 39.3717C185.356 46.8717 166.356 65.8717 158.156 76.6717C137.556 103.872 125.356 132.672 119.456 167.872C117.456 180.272 117.156 208.672 118.956 221.872C123.256 253.572 133.856 281.672 151.256 307.772C155.656 314.272 158.356 317.772 167.956 329.172C169.256 330.772 169.056 331.272 165.956 334.472C164.056 336.472 160.856 339.472 158.756 341.072L154.956 344.172L149.756 339.072C146.856 336.372 142.956 333.272 141.056 332.372C136.356 329.972 128.556 330.072 123.556 332.672C121.156 333.872 96.9563 357.472 61.9563 392.572C-3.24369 457.972 -0.543686 454.672 0.256314 468.872C0.856314 479.172 3.15631 483.172 15.9563 495.972C28.8563 509.072 33.9563 511.872 44.5563 511.872C57.0563 511.872 55.1563 513.472 119.756 448.772C160.156 408.272 178.456 389.272 179.556 386.672C183.056 378.072 180.856 370.272 172.356 361.672C169.256 358.472 166.856 355.772 167.156 355.572C167.356 355.472 170.556 352.472 174.256 348.972L180.956 342.672L184.756 345.772C212.556 369.072 242.256 383.672 275.256 390.272C289.256 393.072 301.856 394.372 304.956 393.372C307.756 392.472 309.956 388.072 309.356 384.672C308.456 379.972 306.056 378.872 292.456 376.872C278.056 374.772 270.056 372.972 259.056 369.472C194.156 348.672 144.956 290.672 135.656 223.772C131.356 193.472 133.556 167.072 142.656 139.872C164.156 75.1717 220.656 27.7717 288.656 17.3717C306.556 14.5717 337.856 15.7717 353.956 19.7717C355.956 20.2717 358.756 20.9717 360.356 21.2717L363.056 21.8717V30.9717C363.056 39.0717 362.856 39.9717 361.356 39.4717C346.156 34.7717 325.456 32.3717 307.556 33.2717C232.556 36.5717 169.856 89.8717 153.956 163.772C150.956 177.672 150.256 206.572 152.456 220.872C158.156 256.372 172.556 285.972 196.556 310.772C222.356 337.572 252.856 353.372 290.556 359.472C301.256 361.272 325.056 361.472 337.256 359.972C402.256 351.772 458.956 300.772 474.156 236.972C486.356 185.972 474.756 133.372 442.456 93.7717L437.056 87.1717V74.7717V62.4717L442.156 67.3717C448.656 73.7717 460.356 88.2717 466.756 97.8717C478.656 115.672 488.656 140.072 493.056 162.472C495.856 176.172 496.856 204.672 495.056 218.272C489.556 260.472 472.256 295.772 443.156 324.972C415.056 352.972 381.656 369.972 342.056 376.272C334.656 377.472 332.156 378.272 330.856 379.972C328.456 382.872 328.556 388.372 331.056 390.872C333.556 393.372 337.456 393.372 349.556 391.272C411.656 380.472 464.756 340.472 492.356 283.672C515.356 236.372 518.556 179.972 501.056 130.372C490.456 100.372 469.356 69.2717 446.056 49.1717L437.056 41.4717V26.8717C437.056 13.5717 436.856 11.7717 434.756 7.87167C430.656 0.0716721 429.456 -0.228328 398.956 0.0716721L372.356 0.371672L368.856 3.07167L365.356 5.77167L353.456 3.17167C343.156 1.07167 338.456 0.671672 319.056 0.371672C306.656 0.171672 293.656 0.371672 290.056 0.871672ZM421.056 99.0717V182.272L423.256 184.572C425.956 187.472 430.956 187.572 434.156 184.972L436.556 183.072L437.056 148.372L437.556 113.672L442.656 122.572C451.556 137.772 457.156 152.772 460.756 170.472C463.456 183.872 463.156 212.872 460.256 226.272C457.156 240.372 452.656 252.772 446.456 264.872C436.456 284.172 437.056 285.572 437.056 246.672C437.056 223.772 436.656 212.172 435.956 210.472C434.556 207.372 430.256 205.572 426.656 206.472C420.956 207.872 421.056 207.372 421.056 255.872V300.472L416.356 304.972C407.656 313.172 397.256 320.672 385.856 326.972L379.056 330.672V173.272V15.8717H400.056H421.056V99.0717ZM343.056 51.7717C360.256 55.3717 360.056 55.5717 337.556 55.9717C317.456 56.3717 316.356 56.4717 312.656 58.7717C305.856 63.0717 305.056 66.0717 305.056 91.0717V112.772L281.856 113.072C255.056 113.372 253.356 113.872 249.356 121.872C247.156 126.072 247.056 127.472 247.056 148.072V169.872H224.756C203.656 169.872 202.256 169.972 198.056 172.072C195.456 173.472 192.756 175.772 191.556 177.872C189.656 181.172 189.556 183.472 189.056 227.872L188.556 274.372L184.856 267.872C172.956 246.872 166.856 223.272 166.956 197.872C166.956 176.472 170.756 157.972 178.856 139.072C200.056 90.2717 243.756 57.1717 296.556 49.9717C307.156 48.4717 331.956 49.4717 343.056 51.7717ZM363.056 204.672V337.572L355.356 339.672C345.456 342.372 331.056 344.872 325.456 344.872H321.056V208.372V71.8717H342.056H363.056V204.672ZM305.056 236.972V345.172L298.856 344.472C290.156 343.472 279.056 341.172 270.656 338.472L263.556 336.272L263.256 232.572L263.056 128.872H284.056H305.056V236.972ZM247.056 257.372V328.972L242.356 326.272C232.956 320.872 221.856 312.572 213.556 304.672L205.056 296.672V241.272V185.872H226.056H247.056V257.372ZM149.256 361.572C157.956 370.172 165.056 377.972 165.056 378.872C165.056 379.672 160.356 385.072 154.556 390.872L144.056 401.372L127.056 384.372L110.056 367.372L120.856 356.572C126.856 350.672 132.156 345.872 132.556 345.872C133.056 345.872 140.556 352.972 149.256 361.572ZM115.356 396.672L132.056 413.372L127.256 418.172L122.556 422.872L105.556 405.872L88.6563 388.872L93.0563 384.372C95.4563 381.872 97.7563 379.872 98.0563 379.872C98.3563 379.872 106.156 387.372 115.356 396.672ZM94.3563 417.672L111.056 434.372L80.2563 465.172L49.4563 495.872H44.9563C41.4563 495.872 39.4563 495.172 36.4563 492.972C32.0563 489.772 20.1563 477.672 17.6563 473.872C15.8563 471.072 15.5563 464.772 17.1563 461.572C18.2563 459.472 76.0563 400.872 77.0563 400.872C77.3563 400.872 85.1563 408.372 94.3563 417.672Z" fill="url(#paint0_linear_694_357)"/>
<defs>
<linearGradient id="paint0_linear_694_357" x1="27.5" y1="20" x2="258" y2="332" gradientUnits="userSpaceOnUse">
<stop stop-color="#FFDB70"/>
<stop offset="1" stop-color="#FFBB5C"/>
</linearGradient>
</defs>
</svg>
